<svg width="1269" height="379" viewBox="0 0 1269 379" fill="none" xmlns="http://www.w3.org/2000/svg">
<path d="M60.7274 159.517C60.7274 95.7931 60.7274 63.931 76.0208 41.0429C82.6414 31.1343 91.1489 22.6269 101.057 16.0063C123.946 0.712891 155.808 0.712891 219.532 0.712891C283.256 0.712891 315.118 0.712891 338.006 16.0063C347.915 22.6269 356.422 31.1343 363.043 41.0429C378.336 63.931 378.336 95.7931 378.336 159.517C378.336 223.242 378.336 255.104 363.043 277.992C356.422 287.9 347.915 296.408 338.006 303.028C315.118 318.322 283.256 318.322 219.532 318.322C155.808 318.322 123.946 318.322 101.057 303.028C91.1489 296.408 82.6414 287.9 76.0208 277.992C60.7274 255.104 60.7274 223.242 60.7274 159.517Z" fill="#553B33"/>
<path d="M0.230469 182.204C0.230469 125.167 0.230469 96.6481 17.9496 78.929C35.6688 61.2098 64.1873 61.2098 121.224 61.2098H196.846C253.883 61.2098 282.401 61.2098 300.12 78.929C317.839 96.6481 317.839 125.167 317.839 182.204V257.825C317.839 314.862 317.839 343.38 300.12 361.1C282.401 378.819 253.883 378.819 196.846 378.819H121.224C64.1873 378.819 35.6688 378.819 17.9496 361.1C0.230469 343.38 0.230469 314.862 0.230469 257.825V182.204Z" fill="#2F241F"/>
<path d="M546.766 276.729H484.379V100.738H547.282C564.984 100.738 580.223 104.262 592.998 111.308C605.774 118.297 615.599 128.351 622.473 141.471C629.405 154.59 632.871 170.287 632.871 188.562C632.871 206.894 629.405 222.649 622.473 235.825C615.599 249.002 605.717 259.113 592.827 266.16C579.994 273.206 564.64 276.729 546.766 276.729ZM521.588 244.848H545.22C556.219 244.848 565.471 242.9 572.976 239.005C580.538 235.052 586.21 228.951 589.991 220.701C593.829 212.394 595.748 201.681 595.748 188.562C595.748 175.557 593.829 164.93 589.991 156.681C586.21 148.431 580.567 142.359 573.062 138.463C565.557 134.567 556.305 132.619 545.306 132.619H521.588V244.848Z" fill="#2F241F"/>
<path d="M710.221 279.307C696.643 279.307 684.956 276.558 675.16 271.058C665.421 265.501 657.916 257.652 652.645 247.512C647.375 237.315 644.74 225.255 644.74 211.334C644.74 197.757 647.375 185.841 652.645 175.586C657.916 165.331 665.335 157.34 674.902 151.611C684.527 145.882 695.813 143.017 708.76 143.017C717.468 143.017 725.574 144.421 733.079 147.228C740.641 149.978 747.229 154.131 752.844 159.688C758.515 165.245 762.926 172.235 766.077 180.656C769.228 189.02 770.804 198.817 770.804 210.045V220.099H659.348V197.413H736.344C736.344 192.143 735.199 187.473 732.907 183.406C730.615 179.338 727.436 176.159 723.368 173.867C719.358 171.519 714.689 170.344 709.361 170.344C703.804 170.344 698.878 171.633 694.581 174.211C690.341 176.732 687.019 180.141 684.613 184.437C682.206 188.677 680.975 193.403 680.917 198.616V220.185C680.917 226.716 682.121 232.359 684.527 237.114C686.99 241.869 690.456 245.536 694.925 248.114C699.393 250.692 704.692 251.981 710.822 251.981C714.89 251.981 718.613 251.408 721.994 250.262C725.374 249.116 728.267 247.398 730.673 245.106C733.079 242.814 734.912 240.007 736.172 236.685L770.03 238.919C768.312 247.054 764.788 254.158 759.46 260.23C754.19 266.246 747.372 270.943 739.008 274.323C730.701 277.646 721.106 279.307 710.221 279.307Z" fill="#2F241F"/>
<path d="M818.184 238.747L818.27 194.835H823.597L865.877 144.736H907.898L851.096 211.076H842.417L818.184 238.747ZM785.013 276.729V100.738H821.621V276.729H785.013ZM867.509 276.729L828.668 219.24L853.073 193.374L910.39 276.729H867.509Z" fill="#2F241F"/>
<path d="M970.381 279.307C957.032 279.307 945.489 276.472 935.75 270.8C926.068 265.071 918.592 257.108 913.321 246.911C908.051 236.656 905.415 224.768 905.415 211.248C905.415 197.614 908.051 185.698 913.321 175.5C918.592 165.245 926.068 157.282 935.75 151.611C945.489 145.882 957.032 143.017 970.381 143.017C983.729 143.017 995.244 145.882 1004.93 151.611C1014.66 157.282 1022.17 165.245 1027.44 175.5C1032.71 185.698 1035.35 197.614 1035.35 211.248C1035.35 224.768 1032.71 236.656 1027.44 246.911C1022.17 257.108 1014.66 265.071 1004.93 270.8C995.244 276.472 983.729 279.307 970.381 279.307ZM970.553 250.949C976.625 250.949 981.695 249.231 985.763 245.793C989.83 242.299 992.895 237.544 994.958 231.529C997.077 225.513 998.137 218.667 998.137 210.991C998.137 203.314 997.077 196.468 994.958 190.452C992.895 184.437 989.83 179.682 985.763 176.188C981.695 172.693 976.625 170.946 970.553 170.946C964.423 170.946 959.267 172.693 955.085 176.188C950.96 179.682 947.838 184.437 945.718 190.452C943.656 196.468 942.624 203.314 942.624 210.991C942.624 218.667 943.656 225.513 945.718 231.529C947.838 237.544 950.96 242.299 955.085 245.793C959.267 249.231 964.423 250.949 970.553 250.949Z" fill="#2F241F"/>
<path d="M1109.11 279.307C1095.76 279.307 1084.22 276.472 1074.48 270.8C1064.79 265.071 1057.32 257.108 1052.05 246.911C1046.78 236.656 1044.14 224.768 1044.14 211.248C1044.14 197.614 1046.78 185.698 1052.05 175.5C1057.32 165.245 1064.79 157.282 1074.48 151.611C1084.22 145.882 1095.76 143.017 1109.11 143.017C1122.46 143.017 1133.97 145.882 1143.65 151.611C1153.39 157.282 1160.9 165.245 1166.17 175.5C1171.44 185.698 1174.07 197.614 1174.07 211.248C1174.07 224.768 1171.44 236.656 1166.17 246.911C1160.9 257.108 1153.39 265.071 1143.65 270.8C1133.97 276.472 1122.46 279.307 1109.11 279.307ZM1109.28 250.949C1115.35 250.949 1120.42 249.231 1124.49 245.793C1128.56 242.299 1131.62 237.544 1133.68 231.529C1135.8 225.513 1136.86 218.667 1136.86 210.991C1136.86 203.314 1135.8 196.468 1133.68 190.452C1131.62 184.437 1128.56 179.682 1124.49 176.188C1120.42 172.693 1115.35 170.946 1109.28 170.946C1103.15 170.946 1097.99 172.693 1093.81 176.188C1089.69 179.682 1086.56 184.437 1084.44 190.452C1082.38 196.468 1081.35 203.314 1081.35 210.991C1081.35 218.667 1082.38 225.513 1084.44 231.529C1086.56 237.544 1089.69 242.299 1093.81 245.793C1097.99 249.231 1103.15 250.949 1109.28 250.949Z" fill="#2F241F"/>
<path d="M1188.2 276.729V144.736H1223.69V167.766H1225.06C1227.47 159.574 1231.51 153.387 1237.18 149.205C1242.85 144.965 1249.38 142.846 1256.77 142.846C1258.61 142.846 1260.58 142.96 1262.7 143.189C1264.82 143.418 1266.68 143.734 1268.29 144.135V176.617C1266.57 176.102 1264.19 175.643 1261.15 175.242C1258.12 174.841 1255.34 174.641 1252.82 174.641C1247.43 174.641 1242.62 175.815 1238.38 178.164C1234.2 180.456 1230.88 183.664 1228.41 187.789C1226.01 191.913 1224.8 196.668 1224.8 202.053V276.729H1188.2Z" fill="#2F241F"/>
</svg>
