<svg width="397" height="397" viewBox="0 0 397 397" fill="none" xmlns="http://www.w3.org/2000/svg">
<path d="M33.082 99.1679C33.082 90.07 40.4596 82.709 49.541 82.709H182.04C186.405 82.709 190.591 84.443 193.678 87.5297C196.765 90.6164 198.499 94.8028 198.499 99.1679C198.499 103.533 196.765 107.72 193.678 110.806C190.591 113.893 186.405 115.627 182.04 115.627H49.541C45.1758 115.627 40.9894 113.893 37.9027 110.806C34.8161 107.72 33.082 103.533 33.082 99.1679V99.1679ZM33.082 198.501C33.082 189.403 40.4596 182.042 49.541 182.042H347.456C351.822 182.042 356.008 183.776 359.095 186.862C362.181 189.949 363.915 194.135 363.915 198.501C363.915 202.866 362.181 207.052 359.095 210.139C356.008 213.226 351.822 214.96 347.456 214.96H49.541C45.1758 214.96 40.9894 213.226 37.9027 210.139C34.8161 207.052 33.082 202.866 33.082 198.501V198.501ZM49.541 281.374C45.1758 281.374 40.9894 283.108 37.9027 286.195C34.8161 289.282 33.082 293.468 33.082 297.833C33.082 302.199 34.8161 306.385 37.9027 309.472C40.9894 312.558 45.1758 314.292 49.541 314.292H248.206C252.572 314.292 256.758 312.558 259.845 309.472C262.931 306.385 264.665 302.199 264.665 297.833C264.665 293.468 262.931 289.282 259.845 286.195C256.758 283.108 252.572 281.374 248.206 281.374H49.541Z" fill="#101828"/>
</svg>
