<svg width="855" height="198" viewBox="0 0 855 198" fill="none" xmlns="http://www.w3.org/2000/svg">
<path d="M263.491 129.41C261.035 130.025 257.964 130.639 254.894 130.639C248.753 130.639 246.297 126.954 246.297 120.813V93.1803H263.491C267.79 93.1803 272.088 90.1099 272.088 85.1974C272.088 80.2848 268.404 77.2144 263.491 77.2144H246.297V68.0034C246.297 62.4767 241.999 58.7923 237.086 58.7923C232.173 58.7923 227.875 63.0908 227.875 68.0034V121.428C227.875 136.779 235.244 147.833 252.438 147.833C257.35 147.833 264.105 147.219 269.018 144.762C273.316 142.92 274.544 139.85 274.544 136.779C274.544 132.481 270.246 128.182 263.491 129.41ZM324.898 74.7582C322.442 74.1441 317.529 73.53 313.231 73.53C297.879 73.53 289.282 82.7411 289.282 96.8647V138.622C289.282 143.534 293.581 147.833 298.493 147.833C303.406 147.833 307.704 143.534 307.704 138.622V100.549C307.704 94.4084 310.161 91.9522 314.459 91.9522C318.758 91.9522 321.214 93.1803 324.898 93.1803C330.425 93.1803 333.495 88.2677 333.495 84.5833C332.881 79.6707 330.425 76.6004 324.898 74.7582ZM375.866 73.53C358.672 73.53 346.391 84.5833 344.549 102.391C344.549 106.69 343.934 114.059 344.549 119.585C345.777 136.779 358.058 148.447 376.48 148.447C385.077 148.447 393.06 146.604 397.973 143.534C401.657 141.078 402.271 138.622 402.271 136.165C402.271 131.253 397.973 126.34 390.604 128.796C386.305 130.639 381.393 131.867 376.48 131.867C367.883 131.867 361.128 127.568 361.128 118.971V117.129H396.131C402.271 117.129 405.342 113.445 405.342 107.918V104.848C405.956 85.8114 393.674 73.53 375.866 73.53ZM387.534 104.848H361.743C361.743 95.6366 366.041 89.4959 375.866 89.4959C384.463 89.4959 389.376 95.0225 388.762 103.005C388.762 104.234 388.762 104.848 387.534 104.848ZM449.555 73.53C432.361 73.53 420.079 84.5833 418.237 102.391C418.237 106.69 417.623 114.059 418.237 119.585C419.465 136.779 431.747 148.447 450.169 148.447C458.766 148.447 466.749 146.604 471.661 143.534C475.346 141.078 475.96 138.622 475.96 136.165C475.96 131.253 471.661 126.34 464.292 128.796C459.994 130.639 455.081 131.867 450.169 131.867C441.572 131.867 434.817 127.568 434.817 118.971V117.129H469.819C475.96 117.129 479.03 113.445 479.03 107.918V104.848C479.644 85.8114 467.363 73.53 449.555 73.53ZM461.222 104.848H435.431C435.431 95.6366 439.73 89.4959 449.555 89.4959C458.152 89.4959 463.064 95.0225 462.45 103.005C462.45 104.234 462.45 104.848 461.222 104.848ZM759.661 104.234L749.836 101.777C743.695 100.549 741.853 98.7069 741.853 95.6366C741.853 92.5662 744.923 90.1099 751.678 90.1099C755.362 90.1099 759.661 91.3381 763.345 93.1803C767.644 95.6366 772.556 95.0225 775.012 91.9522C778.083 88.8818 778.083 83.3552 774.398 79.6707C769.486 75.9863 760.889 73.53 752.292 73.53C736.326 73.53 724.659 81.5129 724.659 96.2506C724.659 107.918 733.256 114.059 744.309 117.129C749.835 118.357 749.221 118.357 754.134 119.585C759.661 120.813 762.117 123.27 762.117 125.726C762.117 129.41 759.047 131.867 751.678 131.867C745.537 131.867 740.01 130.025 735.712 127.568C731.413 124.498 726.501 125.726 724.045 129.41C721.588 133.095 722.202 138.007 725.887 140.464C730.799 144.762 738.782 148.447 751.678 148.447C767.644 148.447 779.925 139.85 779.925 125.112C779.925 114.059 773.17 107.304 759.661 104.234ZM845.017 117.129C851.157 117.129 854.228 113.445 854.228 107.918V104.848C854.228 85.8114 841.946 73.53 824.138 73.53C806.944 73.53 794.663 84.5833 792.82 102.391C792.82 106.69 792.206 114.059 792.82 119.585C794.049 136.779 806.33 148.447 824.752 148.447C833.349 148.447 841.332 146.604 846.245 143.534C849.929 141.078 850.543 138.622 850.543 136.165C850.543 131.253 846.245 126.34 838.876 128.796C834.577 130.639 829.665 131.867 824.752 131.867C816.155 131.867 809.4 127.568 809.4 118.971V117.129H845.017ZM824.138 89.4959C832.735 89.4959 837.648 95.0225 837.034 103.005C837.034 104.234 836.42 104.848 835.805 104.848H810.014C810.014 95.6366 814.927 89.4959 824.138 89.4959ZM599.388 73.53C580.966 73.53 567.456 85.1974 565.614 101.163C565 106.69 565 115.287 565.614 120.813C566.842 136.779 580.966 148.447 599.388 148.447C617.81 148.447 631.32 136.779 632.548 120.813C633.162 115.287 633.162 107.304 632.548 101.777C631.32 85.1974 617.81 73.53 599.388 73.53ZM614.126 117.743C613.512 125.726 607.985 130.639 599.388 130.639C590.791 130.639 585.264 125.112 584.65 117.743C584.65 114.059 584.65 107.918 584.65 104.234C585.264 96.2506 590.791 91.3381 599.388 91.3381C607.985 91.3381 613.512 96.8647 614.126 104.234C614.74 107.918 614.74 114.059 614.126 117.743ZM526.314 73.53C519.559 73.53 512.19 75.9863 509.734 79.0567V59.4064C509.734 53.8797 506.049 50.1953 501.137 50.1953C496.224 50.1953 492.54 54.4938 492.54 59.4064V138.622C492.54 143.534 496.838 147.833 501.751 147.833C506.663 147.833 510.348 143.534 510.348 138.622V97.4788C513.418 94.4084 518.331 91.9522 524.471 91.9522C531.84 91.9522 536.139 96.2507 536.139 104.848V138.622C536.139 144.148 539.823 148.447 544.736 148.447C550.262 148.447 553.947 144.148 553.947 138.622V103.619C553.333 83.9692 543.508 73.53 526.314 73.53ZM698.254 74.1441C693.341 74.1441 689.042 78.4426 689.042 83.3552V126.954C685.972 128.796 681.674 130.639 676.147 130.639C668.778 130.639 663.251 126.34 663.251 117.743V83.3552C663.251 77.8285 658.953 73.53 654.04 73.53C648.514 73.53 645.443 77.8285 645.443 83.3552V118.357C645.443 137.393 656.497 147.833 675.533 147.833C689.657 147.833 699.482 142.92 703.78 139.85C706.236 138.622 706.851 136.779 706.851 133.709V83.3552C706.851 78.4426 703.166 74.1441 698.254 74.1441Z" fill="#3E474F"/>
<path d="M160.326 36.0767C153.572 32.3923 143.132 38.533 136.992 49.5863L125.324 69.2365C121.026 77.2195 121.64 87.0446 127.167 95.0275L127.781 95.6416C133.307 103.01 140.062 110.379 142.518 112.836C143.747 114.064 144.975 115.906 145.589 118.362C147.431 125.117 143.747 132.486 136.378 134.328C129.623 136.17 122.254 132.486 120.412 125.117C119.798 123.275 119.798 121.433 119.798 120.204C120.412 117.134 119.184 112.836 114.885 107.923C110.587 103.625 102.604 112.222 99.5334 120.819V121.433C97.0771 130.03 95.2349 138.013 95.849 138.627C95.849 139.241 96.4631 139.241 96.4631 139.855C100.147 147.224 97.6912 155.821 90.3224 159.505C82.9535 163.189 74.3565 160.733 70.6721 153.364C66.9876 145.995 69.4439 137.398 76.8128 133.714C77.4269 133.714 77.4269 133.1 78.0409 133.1C78.655 133.1 79.8831 129.416 81.7254 124.503C82.9535 120.204 83.5676 118.362 84.1816 116.52C84.7957 114.064 86.0239 107.923 85.4098 105.467C84.7957 102.396 81.7254 102.396 78.655 104.239C76.8128 105.467 73.1284 108.537 71.9002 109.765C68.8299 112.222 66.3736 115.906 65.1454 118.976C64.5314 120.204 63.3032 122.047 62.0751 123.275C56.5484 127.573 48.5655 126.959 43.6529 121.433C39.3545 115.906 39.9685 107.923 45.4952 103.01C47.3374 101.782 49.1796 100.554 51.0218 100.554C54.0922 99.9401 65.1454 93.1853 71.9002 88.2727C73.1284 87.6587 74.9706 85.8165 75.5846 85.2024C77.4269 82.7461 75.5846 80.9039 73.7424 80.9039C68.2158 81.518 62.0751 82.132 60.8469 83.9742C60.2329 84.5883 59.6188 85.8165 58.3907 86.4305C53.4781 90.115 46.1092 88.8868 42.4248 83.9742C38.7404 79.0617 39.9685 71.6928 44.8811 68.0084C46.7233 66.1662 49.7937 65.5521 51.6359 65.5521C55.9344 65.5521 66.9876 68.0084 75.5846 66.1662L78.0409 65.5521C87.252 63.7099 98.3053 55.727 102.604 47.744C102.604 47.744 106.902 40.3752 111.815 31.1641C117.341 21.953 116.727 11.5138 111.201 8.44348L100.762 2.30277C95.2349 -0.767589 87.252 -0.767589 81.7254 2.30277L10.4931 42.8315C4.96647 45.9018 0.667969 53.2707 0.667969 59.4114V138.013C0.667969 144.153 4.96647 151.522 10.4931 154.592L81.7254 195.121C87.252 198.192 95.849 198.192 100.762 195.121L171.994 154.592C177.52 151.522 181.819 144.153 181.819 138.013V59.4114C181.819 53.2707 177.52 45.9018 171.994 42.8315C171.994 42.8315 167.081 39.7611 160.326 36.0767Z" fill="#5FCF80"/>
</svg>
