<svg width="591" height="161" viewBox="0 0 591 161" fill="none" xmlns="http://www.w3.org/2000/svg">
<path d="M161.814 109.726C145.353 109.726 134.455 97.2559 131.415 92.4256C135.315 61.868 146.73 52.2065 161.814 52.2065C176.728 52.2065 188.314 63.8902 188.314 80.966C188.314 98.0421 176.728 109.726 161.814 109.726ZM161.814 33.4453C134.971 33.4453 119.944 50.5776 115.642 68.2154C110.766 59.228 107.153 47.2073 104.342 36.0292H67.2313V81.2472C67.2313 97.6493 59.6027 109.782 44.6897 109.782C29.7766 109.782 21.2303 97.6493 21.2303 81.2472L21.4023 36.0292H0.0078125V81.2472C0.0078125 94.4476 4.36702 106.412 12.3398 114.95C20.542 123.769 31.7268 128.375 44.6897 128.375C70.5007 128.375 88.5114 108.996 88.5114 81.2472V50.8584C91.2067 60.8569 97.6313 80.0675 109.906 96.9192L98.4343 160.898H120.173L127.744 115.568C130.21 117.59 132.849 119.387 135.659 121.017C142.944 125.51 151.261 128.038 159.865 128.319C159.865 128.319 161.183 128.375 161.872 128.375C188.486 128.375 209.651 108.21 209.651 80.966C209.651 53.7232 188.429 33.4453 161.814 33.4453Z" fill="#14A800"/>
<path d="M469.204 45.6939V36.0325H448.211V125.513H469.491V90.4625C469.491 68.8927 471.498 53.3894 501.037 55.4116V34.9652C487.271 33.9541 476.546 36.7627 469.204 45.6939Z" fill="#14A800"/>
<path d="M321.449 36.0371L306.02 98.612L289.558 36.0371H262.485L245.966 98.612L230.594 36.0371H209.027L232.659 125.575H258.241L276.022 61.9883L293.63 125.575H319.212L344.22 36.0371H321.449Z" fill="#14A800"/>
<path d="M391.084 109.782C375.941 109.782 364.584 98.0989 364.584 80.966C364.584 63.834 375.999 52.2065 391.084 52.2065C405.997 52.2065 417.583 63.8902 417.583 80.966C417.583 98.0421 405.997 109.782 391.084 109.782ZM391.084 33.4453C364.297 33.4453 343.305 53.7793 343.305 80.966C343.305 108.153 364.297 128.319 391.084 128.319C417.698 128.319 438.863 108.153 438.863 80.966C438.863 53.7793 417.755 33.4453 391.084 33.4453Z" fill="#14A800"/>
<path d="M531.552 81.534H536.485L566.196 125.572H590.23L556.044 76.7591C572.621 70.4118 583.748 53.8413 583.748 36.0349H562.525C562.525 55.3579 546.981 62.6602 531.552 62.6602V0.703125H510.215V125.572H531.495L531.552 81.534Z" fill="#14A800"/>
</svg>
