<svg width="503" height="191" viewBox="0 0 503 191" fill="none" xmlns="http://www.w3.org/2000/svg">
<path d="M446.649 27.9051C415.573 27.9051 390.284 53.2495 390.284 84.4063C390.284 115.563 415.573 140.908 446.649 140.908C477.719 140.908 503 115.563 503 84.4063C503 53.2495 477.719 27.9051 446.649 27.9051V27.9051ZM446.649 114.13C430.306 114.13 416.994 100.781 416.994 84.4063C416.994 68.0241 430.306 54.6826 446.649 54.6826C462.979 54.6826 476.297 68.0241 476.297 84.4063C476.297 100.789 462.986 114.13 446.642 114.13H446.649ZM280.674 72.9635L270.818 68.0314C266.539 65.9072 263.856 64.2632 262.777 63.0483C261.749 61.9719 261.163 60.549 261.137 59.0619C261.137 57.156 261.997 55.5483 263.689 54.2971C265.365 52.9877 267.749 52.3911 270.774 52.3911C276.307 52.3911 282.438 55.7229 289.189 62.4373L305.824 45.7568C301.736 40.2022 296.391 35.6906 290.224 32.5899C284.137 29.534 277.413 27.9586 270.599 27.9924C260.445 27.9924 252.061 30.9822 245.53 37.0055C239.005 43.0288 235.725 50.267 235.725 58.7564C235.725 71.9233 244.363 82.8932 261.698 91.6009L270.774 96.1474C278.596 100.097 282.489 104.12 282.489 108.281C282.489 110.536 281.403 112.486 279.245 114.217C277.087 115.956 274.23 116.778 270.687 116.778C267.406 116.778 263.645 115.65 259.409 113.359C255.189 111.104 251.435 108.073 248.344 104.426L231.796 122.496C241.127 134.717 253.57 140.871 269.214 140.871C280.973 140.871 290.355 137.663 297.309 131.291C304.308 124.925 307.807 116.953 307.807 107.416C307.807 100.265 305.868 93.9869 302.019 88.6547C298.133 83.3224 291.004 78.1284 280.674 72.9708V72.9635ZM113.328 128.599V30.1529H86.5743V36.7436C77.5597 30.9616 67.0668 27.8931 56.3506 27.9051C25.2812 27.9051 0 53.2495 0 84.4063C0 115.563 25.2812 140.908 56.3579 140.908C66.9455 140.923 77.3193 137.934 86.2681 132.287C86.2681 133.153 86.2244 133.931 86.2244 134.455C86.2244 150.83 72.9131 164.179 56.5766 164.179C51.0218 164.166 45.5837 162.587 40.8888 159.625L27.6577 182.853C36.3823 188.163 46.4007 190.982 56.6203 191C87.697 191 113.328 165.648 113.328 134.491C113.328 133.284 113.408 129.727 113.328 128.599V128.599ZM56.3579 114.123C40.0286 114.123 26.71 100.781 26.71 84.4063C26.71 68.0241 40.0213 54.6826 56.3579 54.6826C72.6944 54.6826 86.0057 68.0241 86.0057 84.4063C86.0057 100.781 72.6944 114.13 56.3579 114.13V114.123ZM219.898 30.1165H193.013V83.8317C193.057 91.4626 193.057 104.637 187.444 110.267C184.761 112.952 181.824 115.381 175.642 115.381C169.416 115.381 166.478 112.952 163.803 110.267C158.183 104.63 158.226 91.419 158.263 83.8317V30.1165H131.385V83.6716C131.298 94.7143 131.166 115.214 144.653 128.817C152.562 136.79 161.988 140.864 175.598 140.864C189.215 140.864 198.634 136.834 206.543 128.817C220.03 115.214 219.898 94.6707 219.811 83.6716L219.898 30.1093V30.1165ZM372.249 109.322C370.091 110.966 364.857 114.61 358.938 113.788C354.097 113.133 350.168 109.583 349.563 97.7115V53.1695H381.157V30.0292H349.563V0H322.766V5.89237H322.722V94.2051C322.722 108.245 326.265 140.864 358.894 140.864C375.406 140.609 385.429 131.64 389.628 128.134L390.19 127.697L374.108 107.852C374.064 107.889 372.942 108.798 372.249 109.322V109.322Z" fill="#F45D48"/>
</svg>
