<svg width="410" height="171" viewBox="0 0 410 171" fill="none" xmlns="http://www.w3.org/2000/svg">
<path fill-rule="evenodd" clip-rule="evenodd" d="M410 88.354C410 59.1311 395.878 36.0724 368.886 36.0724C341.781 36.0724 325.381 59.1311 325.381 88.1257C325.381 122.485 344.742 139.837 372.531 139.837C386.083 139.837 396.333 136.754 404.078 132.417V109.586C396.333 113.467 387.45 115.865 376.175 115.865C365.128 115.865 355.333 111.983 354.081 98.5135H409.772C409.772 97.0296 410 91.0937 410 88.354ZM353.739 77.5096C353.739 64.6104 361.597 59.2452 368.772 59.2452C375.719 59.2452 383.122 64.6104 383.122 77.5096H353.739Z" fill="#635BFF"/>
<path fill-rule="evenodd" clip-rule="evenodd" d="M281.419 36.0723C270.258 36.0723 263.083 41.3233 259.097 44.9762L257.616 37.8987H232.561V171L261.033 164.95L261.147 132.645C265.247 135.613 271.283 139.836 281.305 139.836C301.691 139.836 320.255 123.399 320.255 87.2124C320.141 54.1083 301.349 36.0723 281.419 36.0723ZM274.585 114.723C267.866 114.723 263.88 112.326 261.147 109.358L261.033 67.0075C263.994 63.6971 268.094 61.414 274.585 61.414C284.949 61.414 292.124 73.0575 292.124 88.0115C292.124 103.308 285.063 114.723 274.585 114.723Z" fill="#635BFF"/>
<path fill-rule="evenodd" clip-rule="evenodd" d="M193.382 29.3371L221.968 23.1729V0L193.382 6.05006V29.3371Z" fill="#635BFF"/>
<path d="M221.968 38.0127H193.382V137.896H221.968V38.0127Z" fill="#635BFF"/>
<path fill-rule="evenodd" clip-rule="evenodd" d="M162.745 46.4599L160.923 38.0127H136.323V137.896H164.795V70.2036C171.514 61.4138 182.903 63.012 186.434 64.2676V38.0127C182.789 36.6429 169.464 34.1315 162.745 46.4599Z" fill="#635BFF"/>
<path fill-rule="evenodd" clip-rule="evenodd" d="M105.801 13.2415L78.0126 19.1774L77.8987 110.613C77.8987 127.508 90.5404 139.95 107.396 139.95C116.735 139.95 123.568 138.238 127.326 136.183V113.01C123.682 114.494 105.688 119.745 105.688 102.851V62.3269H127.326V38.0125H105.688L105.801 13.2415Z" fill="#635BFF"/>
<path fill-rule="evenodd" clip-rule="evenodd" d="M28.8139 67.0076C28.8139 62.5556 32.4583 60.8434 38.4944 60.8434C47.1499 60.8434 58.0832 63.4689 66.7388 68.1491V41.3234C57.286 37.5563 47.9472 36.0724 38.4944 36.0724C15.375 36.0724 0 48.1725 0 68.3774C0 99.8834 43.2777 94.8607 43.2777 108.445C43.2777 113.696 38.7222 115.408 32.3444 115.408C22.8916 115.408 10.8194 111.527 1.25277 106.276V133.444C11.8444 138.01 22.55 139.951 32.3444 139.951C56.0333 139.951 72.3193 128.193 72.3193 107.76C72.2054 73.7425 28.8139 79.7926 28.8139 67.0076Z" fill="#635BFF"/>
</svg>
